# xmcd
#
# Track frame offsets: 
#        150
#        11677
#        21546
#        31171
#        42273
#        53559
#        67079
#        77467
#        88326
#        100676
#
# Disc length: 1632 seconds
#
# Revision: 0
# Processed by: cddbd v1.5.2PL0 Copyright (c) Steve Scherf et al.
# Submitted via: ExactAudioCopy v0.99pb5
#
DISCID=77065e0a
DTITLE=Curtis Potter - Curtis Potter Sings Willie Nelson
DYEAR=2008
DGENRE=Country
TTITLE0=Hello Walls
TTITLE1=Crazy
TTITLE2=Half A Man
TTITLE3=Healing Hands Of Time
TTITLE4=I've Just Destroyed The World
TTITLE5=It Should Be Easier Now
TTITLE6=Touch Me
TTITLE7=Undo The Right
TTITLE8=You Left A Long, Long Time Ago
TTITLE9=Night Life
EXTD=
EXTT0=
EXTT1=
EXTT2=
EXTT3=
EXTT4=
EXTT5=
EXTT6=
EXTT7=
EXTT8=
EXTT9=
PLAYORDER=
